HIERARCHY
ROOT Reference
{
  OFFSET 0 0 0
  CHANNELS 6 Xposition Yposition Zposition Zrotation Xrotation Yrotation
  JOINT Hips
  {
    OFFSET 251.394 724.17 483.536
    CHANNELS 3 Zrotation Xrotation Yrotation
    JOINT RightUpLeg
    {
      OFFSET -0.450515 -23.4426 -1.37224
      CHANNELS 3 Zrotation Xrotation Yrotation
      JOINT RightLeg
      {
        OFFSET 112.821 0.0872427 -0.321027
        CHANNELS 3 Zrotation Xrotation Yrotation
        JOINT RightFoot
        {
          OFFSET 105.718 0.000193788 0.0213165
          CHANNELS 3 Zrotation Xrotation Yrotation
          JOINT RightToeBase
          {
            OFFSET 37.638 -0.000116272 0.00224792
            CHANNELS 3 Zrotation Xrotation Yrotation
            JOINT RightToeEnd
            {
              OFFSET 21.2112 0.114605 -0.000138184
              CHANNELS 3 Zrotation Xrotation Yrotation
              End Site
              {
                OFFSET 0 0 0
              }
            }
          }
        }
      }
    }
    JOINT LeftUpLeg
    {
      OFFSET -0.449508 23.4315 -1.37054
      CHANNELS 3 Zrotation Xrotation Yrotation
      JOINT LeftLeg
      {
        OFFSET 112.821 -0.0485242 -0.372458
        CHANNELS 3 Zrotation Xrotation Yrotation
        JOINT LeftFoot
        {
          OFFSET 105.716 0.00496094 -0.0229443
          CHANNELS 3 Zrotation Xrotation Yrotation
          JOINT LeftToeBase
          {
            OFFSET 37.639 0 0.00158905
            CHANNELS 3 Zrotation Xrotation Yrotation
            JOINT LeftToeEnd
            {
              OFFSET 21.2113 -0.125031 -0.00017438
              CHANNELS 3 Zrotation Xrotation Yrotation
              End Site
              {
                OFFSET 0 0 0
              }
            }
          }
        }
      }
    }
    JOINT Spine
    {
      OFFSET -5.01225 0.000463591 -9.60395
      CHANNELS 3 Zrotation Xrotation Yrotation
      JOINT Spine1
      {
        OFFSET 26.0222 -0.000271301 -0.000155029
        CHANNELS 3 Zrotation Xrotation Yrotation
        JOINT Spine2
        {
          OFFSET 27.173 -0.000155029 -0.000310058
          CHANNELS 3 Zrotation Xrotation Yrotation
          JOINT Spine3
          {
            OFFSET 36.3953 -0.000232544 7.75146e-005
            CHANNELS 3 Zrotation Xrotation Yrotation
            JOINT Neck
            {
              OFFSET 36.4331 0 -3.00261
              CHANNELS 3 Zrotation Xrotation Yrotation
              JOINT Head
              {
                OFFSET 23.0407 -0.000232544 -0.000310058
                CHANNELS 3 Zrotation Xrotation Yrotation
                End Site
                {
                  OFFSET 0 0 0
                }
              }
            }
            JOINT LeftShoulder
            {
              OFFSET 20.1317 6.74168 -12.6061
              CHANNELS 3 Zrotation Xrotation Yrotation
              JOINT LeftArm
              {
                OFFSET 34.2172 -5.81359e-005 7.75146e-005
                CHANNELS 3 Zrotation Xrotation Yrotation
                JOINT LeftForeArm
                {
                  OFFSET 65.4129 -0.0821605 0.0585235
                  CHANNELS 3 Zrotation Xrotation Yrotation
                  JOINT LeftHand
                  {
                    OFFSET 67.3883 0.0359667 0.0112396
                    CHANNELS 3 Zrotation Xrotation Yrotation
                    JOINT LeftHandThumb1
                    {
                      OFFSET 8.78386 2.85353 -6.05362
                      CHANNELS 3 Zrotation Xrotation Yrotation
                      JOINT LeftHandThumb2
                      {
                        OFFSET 8.25498 -0.000116272 -0.000174407
                        CHANNELS 3 Zrotation Xrotation Yrotation
                        JOINT LeftHandThumb3
                        {
                          OFFSET 7.24822 0.000310058 5.81358e-005
                          CHANNELS 3 Zrotation Xrotation Yrotation
                          JOINT LeftHandThumb4
                          {
                            OFFSET 7.0004 -3.87568e-005 -0.000310057
                            CHANNELS 3 Zrotation Xrotation Yrotation
                            End Site
                            {
                              OFFSET 0 0 0
                            }
                          }
                        }
                      }
                    }
                    JOINT LeftHandIndex1
                    {
                      OFFSET 24.0991 -1.01537 -5.40558
                      CHANNELS 3 Zrotation Xrotation Yrotation
                      JOINT LeftHandIndex2
                      {
                        OFFSET 7.26759 -0.000290679 -0.000465086
                        CHANNELS 3 Zrotation Xrotation Yrotation
                        JOINT LeftHandIndex3
                        {
                          OFFSET 7.13628 -1.93787e-005 0.000232543
                          CHANNELS 3 Zrotation Xrotation Yrotation
                          JOINT LeftHandIndex4
                          {
                            OFFSET 5.46699 9.68932e-005 -0.000387571
                            CHANNELS 3 Zrotation Xrotation Yrotation
                            End Site
                            {
                              OFFSET 0 0 0
                            }
                          }
                        }
                      }
                    }
                    JOINT LeftHandMiddle1
                    {
                      OFFSET 24.4604 -2.52837 0.918567
                      CHANNELS 3 Zrotation Xrotation Yrotation
                      JOINT LeftHandMiddle2
                      {
                        OFFSET 7.41627 -5.81359e-005 0.000116271
                        CHANNELS 3 Zrotation Xrotation Yrotation
                        JOINT LeftHandMiddle3
                        {
                          OFFSET 8.76829 3.87573e-005 -7.75142e-005
                          CHANNELS 3 Zrotation Xrotation Yrotation
                          JOINT LeftHandMiddle4
                          {
                            OFFSET 6.07588 -0.00013565 -5.81356e-005
                            CHANNELS 3 Zrotation Xrotation Yrotation
                            End Site
                            {
                              OFFSET 0 0 0
                            }
                          }
                        }
                      }
                    }
                    JOINT LeftHandRing1
                    {
                      OFFSET 22.465 -1.97467 6.3466
                      CHANNELS 3 Zrotation Xrotation Yrotation
                      JOINT LeftHandRing2
                      {
                        OFFSET 7.36666 -0.000232544 0.000387571
                        CHANNELS 3 Zrotation Xrotation Yrotation
                        JOINT LeftHandRing3
                        {
                          OFFSET 8.07624 -0.000465087 -0.000203475
                          CHANNELS 3 Zrotation Xrotation Yrotation
                          JOINT LeftHandRing4
                          {
                            OFFSET 6.04433 0.00013565 3.87571e-005
                            CHANNELS 3 Zrotation Xrotation Yrotation
                            End Site
                            {
                              OFFSET 0 0 0
                            }
                          }
                        }
                      }
                    }
                    JOINT LeftHandPinky1
                    {
                      OFFSET 19.5278 0.352933 10.4295
                      CHANNELS 3 Zrotation Xrotation Yrotation
                      JOINT LeftHandPinky2
                      {
                        OFFSET 6.16525 5.8136e-005 -0.000251921
                        CHANNELS 3 Zrotation Xrotation Yrotation
                        JOINT LeftHandPinky3
                        {
                          OFFSET 6.14448 -0.000329434 -0.00510625
                          CHANNELS 3 Zrotation Xrotation Yrotation
                          JOINT LeftHandPinky4
                          {
                            OFFSET 4.98555 0.000116272 0.000116271
                            CHANNELS 3 Zrotation Xrotation Yrotation
                            End Site
                            {
                              OFFSET 0 0 0
                            }
                          }
                        }
                      }
                    }
                  }
                }
              }
            }
            JOINT RightShoulder
            {
              OFFSET 20.1309 -6.74152 -12.6063
              CHANNELS 3 Zrotation Xrotation Yrotation
              JOINT RightArm
              {
                OFFSET 34.2171 7.75146e-005 7.75146e-005
                CHANNELS 3 Zrotation Xrotation Yrotation
                JOINT RightForeArm
                {
                  OFFSET 65.4492 0.242543 -0.176501
                  CHANNELS 3 Zrotation Xrotation Yrotation
                  JOINT RightHand
                  {
                    OFFSET 67.3888 -0.0867388 0.0597442
                    CHANNELS 3 Zrotation Xrotation Yrotation
                    JOINT RightHandThumb1
                    {
                      OFFSET 8.78307 -2.85357 -6.05302
                      CHANNELS 3 Zrotation Xrotation Yrotation
                      JOINT RightHandThumb2
                      {
                        OFFSET 8.25493 -7.75145e-005 0
                        CHANNELS 3 Zrotation Xrotation Yrotation
                        JOINT RightHandThumb3
                        {
                          OFFSET 7.24797 -0.000174408 0.000155029
                          CHANNELS 3 Zrotation Xrotation Yrotation
                          JOINT RightHandThumb4
                          {
                            OFFSET 7.00062 0 0
                            CHANNELS 3 Zrotation Xrotation Yrotation
                            End Site
                            {
                              OFFSET 0 0 0
                            }
                          }
                        }
                      }
                    }
                    JOINT RightHandIndex1
                    {
                      OFFSET 24.0991 1.01525 -5.40578
                      CHANNELS 3 Zrotation Xrotation Yrotation
                      JOINT RightHandIndex2
                      {
                        OFFSET 7.26773 7.75144e-005 0.000232543
                        CHANNELS 3 Zrotation Xrotation Yrotation
                        JOINT RightHandIndex3
                        {
                          OFFSET 7.13572 -0.000310058 3.87571e-005
                          CHANNELS 3 Zrotation Xrotation Yrotation
                          JOINT RightHandIndex4
                          {
                            OFFSET 5.46717 0 3.87572e-005
                            CHANNELS 3 Zrotation Xrotation Yrotation
                            End Site
                            {
                              OFFSET 0 0 0
                            }
                          }
                        }
                      }
                    }
                    JOINT RightHandMiddle1
                    {
                      OFFSET 24.4603 2.52899 0.918547
                      CHANNELS 3 Zrotation Xrotation Yrotation
                      JOINT RightHandMiddle2
                      {
                        OFFSET 7.41641 -0.000116272 -0.000116272
                        CHANNELS 3 Zrotation Xrotation Yrotation
                        JOINT RightHandMiddle3
                        {
                          OFFSET 8.76765 -3.87577e-005 0.000232543
                          CHANNELS 3 Zrotation Xrotation Yrotation
                          JOINT RightHandMiddle4
                          {
                            OFFSET 6.07609 -0.000193787 -0.000116271
                            CHANNELS 3 Zrotation Xrotation Yrotation
                            End Site
                            {
                              OFFSET 0 0 0
                            }
                          }
                        }
                      }
                    }
                    JOINT RightHandRing1
                    {
                      OFFSET 22.465 1.97571 6.34696
                      CHANNELS 3 Zrotation Xrotation Yrotation
                      JOINT RightHandRing2
                      {
                        OFFSET 7.36684 0.000193786 0.000155029
                        CHANNELS 3 Zrotation Xrotation Yrotation
                        JOINT RightHandRing3
                        {
                          OFFSET 8.07614 -0.000271301 0
                          CHANNELS 3 Zrotation Xrotation Yrotation
                          JOINT RightHandRing4
                          {
                            OFFSET 6.04468 0.000232543 0
                            CHANNELS 3 Zrotation Xrotation Yrotation
                            End Site
                            {
                              OFFSET 0 0 0
                            }
                          }
                        }
                      }
                    }
                    JOINT RightHandPinky1
                    {
                      OFFSET 19.5277 -0.352346 10.4296
                      CHANNELS 3 Zrotation Xrotation Yrotation
                      JOINT RightHandPinky2
                      {
                        OFFSET 6.16508 0 0.000232543
                        CHANNELS 3 Zrotation Xrotation Yrotation
                        JOINT RightHandPinky3
                        {
                          OFFSET 6.14396 -0.000155048 -0.0048834
                          CHANNELS 3 Zrotation Xrotation Yrotation
                          JOINT RightHandPinky4
                          {
                            OFFSET 4.98577 -7.75146e-005 -7.75143e-005
                            CHANNELS 3 Zrotation Xrotation Yrotation
                            End Site
                            {
                              OFFSET 0 0 0
                            }
                          }
                        }
                      }
                    }
                  }
                }
              }
            }
          }
        }
      }
    }
  }
}
MOTION
Frames:	4
Frame Time:	0.0333333
0 0 0 -90 -7.01671e-015 -180 -135.219 77.2409 23.2774 142.47 -0.223831 -95.1593 -2.6198 -2.37739 -49.1081 16.5249 23.155 35.6542 -17.1473 21.5041 58.3661 8.30148e-006 2.00519e-006 -86.4974 168.481 -22.9945 -115.381 -0.254066 -0.0887882 -5.02915 -8.80061 -2.45832 39.8255 -4.22205 4.03928 52.6675 -8.90673e-006 9.08291e-006 -86.4975 0.000488148 0.000101416 123.633 -8.3686 7.689 -12.0467 14.2144 5.16269 -13.7921 0.339928 -2.94197 -8.66912 3.7319 -6.09696 38.6756 7.98726 -11.9977 46.067 105.841 21.8189 -31.0699 63.3993 15.2249 -8.38982 -11.0978 30.1247 28.0485 -1.02346 -46.9316 -3.57642 -158.644 -1.25079 154.969 -0.00398825 -0.00213648 18.1976 0.000151006 -4.94737e-005 11.9589 0.0050385 -0.00184723 -0.00328716 36.0655 86.5083 -17.7567 -0.000307691 -0.000225377 14.4451 0.00112275 -0.000804677 10.5803 -0.000568659 -0.000441966 -2.32886 -1.69207 86.8812 32.8038 0.000114108 -0.00017185 15.1989 0.000925541 -0.000708531 16.0249 -0.000503107 -0.000377174 -2.32821 -58.2561 83.2335 92.5777 0.000121507 -0.000863324 16.2201 0.00154828 -0.000418408 17.0667 -0.000625164 -0.000651859 -2.32754 -63.1891 86.0926 89.0509 0.00113261 -0.00114969 19.279 0.000145474 -0.000164803 18.9148 -1.67212e-005 -2.08114e-005 -2.32874 -54.8344 -20.6853 -8.73296 -3.25969 45.043 26.9673 7.08233 20.3329 24.6558 0.225426 35.6624 -10.3904 142.213 51.8015 169.894 -0.000186879 0.000100939 16.9256 8.79307e-005 8.39515e-005 18.8543 -0.000244141 -3.05175e-005 -180 -95.0294 -68.1709 -102.33 -0.000189216 -0.000228348 49.758 4.06535e-005 -6.35293e-005 45.1944 -3.05176e-005 -0.000137329 -180 -105.983 -79.9218 -76.0642 -0.000209393 3.07104e-005 65.9844 -0.000310523 0.000351584 58.5702 3.05176e-005 -4.57763e-005 -180 -16.1796 -83.9647 34.4438 -0.000103528 0.000291408 55.5556 -0.000228589 -6.21727e-005 57.7157 -6.10351e-005 -0.000198364 -180 13.4556 -78.0188 70.4019 -0.000294479 0.000545932 51.2477 -6.87651e-005 0.000160102 49.3612 -6.10352e-005 -0.000137329 -180 
0 0 0 -90 -7.01671e-015 -180 -136.435 76.4964 24.4437 142.003 -0.038929 -95.5074 -2.68518 -2.39362 -49.6032 16.7108 23.6013 35.2767 -17.6407 22.4413 58.4498 8.19871e-006 -1.78941e-006 -86.4974 168.867 -23.6509 -115.447 -0.257159 -0.113436 -5.40979 -9.03376 -2.38077 39.9416 -4.18705 4.00075 52.717 -8.89822e-006 -1.52914e-006 -86.4975 0.000424751 5.89692e-005 123.51 -8.43444 7.83489 -12.103 14.4805 5.30359 -13.9179 0.358395 -3.00576 -8.78681 3.81226 -6.36662 39.0783 8.15158 -12.2463 46.2504 106.36 21.7306 -31.5465 62.2159 14.6003 -8.45268 -11.3735 29.9604 27.508 -0.146328 -46.7795 -4.05882 -158.654 -1.25111 154.835 0.000484773 -0.000139521 18.1491 0.00015704 -4.26566e-005 11.9093 0.00444088 -0.00177724 -0.00150855 35.3517 86.5229 -17.1607 -0.000312401 -0.000223857 14.3499 0.0011121 -0.000803287 10.4743 -0.000570238 -0.000441173 -2.32523 -1.69287 86.8818 32.7145 0.000115223 -0.000170718 15.1087 0.000927101 -0.000706428 15.9348 -0.00050302 -0.000372544 -2.32866 -58.3141 83.2634 92.5658 8.47693e-005 -0.000871609 16.1503 0.00153766 -0.000421469 16.9968 -0.000626004 -0.000651817 -2.32392 -63.1689 86.1695 89.0151 0.00114028 -0.00115168 19.2048 0.0180143 0.0059471 18.8333 -0.000375335 -2.12556e-005 -2.32606 -54.8464 -20.6847 -8.76138 -2.58835 45.6325 27.3414 6.87991 19.6209 23.4019 -0.47018 35.0079 -9.73227 142.213 51.8015 169.894 -0.000186214 9.76898e-005 16.9256 8.67902e-005 8.00876e-005 18.8543 -0.00024414 -3.05175e-005 -179.998 -95.0294 -68.1709 -102.33 -0.000189027 -0.000235539 49.758 3.76437e-005 -6.6571e-005 45.1944 -3.05186e-005 -0.000137329 180 -105.983 -79.9218 -76.0642 -0.000209151 2.45327e-005 65.9844 -0.000310731 0.000347861 58.5702 3.05173e-005 -4.57763e-005 180 -16.1796 -83.9647 34.4438 -0.000104482 0.00028597 55.5556 -0.000228229 -6.15097e-005 57.7157 -6.10367e-005 -0.000198364 180 13.4556 -78.0188 70.4019 -0.000294282 0.000546279 51.2477 -6.72402e-005 0.000162169 49.3612 -6.10363e-005 -0.000137329 180 
0 0 0 -90 -7.01671e-015 -180 -137.849 75.4816 25.7712 141.675 -0.0806444 -95.8869 -2.69932 -2.35401 -50.2201 16.7119 23.4235 34.6054 -18.54 22.8854 59.6582 7.77049e-006 -6.19454e-006 -86.4974 169.326 -24.4108 -115.8 -0.257877 -0.124046 -5.32573 -9.2012 -2.13298 39.77 -4.17552 3.99098 52.7821 -8.90513e-006 -1.59562e-005 -86.4975 0.000430109 9.22976e-005 123.36 -8.48828 7.92696 -12.0885 14.9239 5.40556 -13.9611 0.39677 -3.27321 -8.89477 3.85396 -6.54728 39.438 8.28874 -12.5146 46.381 107.125 21.6192 -32.1125 60.412 13.4757 -7.78714 -10.7366 28.6223 25.848 0.676774 -44.8006 -4.38935 -158.68 -1.25261 154.45 0.000464635 -0.000144536 18.019 0.000157113 -3.27334e-005 11.7671 0.00384455 -0.00171074 0.000270276 33.277 86.5628 -15.4241 -0.000317316 -0.00024137 14.077 0.00113157 -0.000792074 10.1703 -0.000570559 -0.000437113 -2.3216 -1.69513 86.8834 32.4582 0.000101154 -0.000167423 14.8501 0.000929924 -0.000707273 15.6762 -0.000506136 -0.000370365 -2.32911 -58.4801 83.3488 92.5312 8.59951e-005 -0.000876906 15.9497 0.00153556 -0.00040024 16.7962 -0.00062682 -0.000653635 -2.32029 -63.1031 86.3902 88.9044 0.00113564 -0.00116165 18.9922 0.0200517 0.00655536 18.5906 -0.000732643 -2.39471e-005 -2.32337 -54.8825 -20.6828 -8.84476 -1.93991 46.0308 27.4922 6.84264 18.9152 22.5551 -1.01581 34.659 -9.3903 142.213 51.8015 169.894 -0.000185975 9.28996e-005 16.9256 8.66705e-005 7.51568e-005 18.8543 -0.000244139 -3.05175e-005 -179.997 -95.0294 -68.1709 -102.33 -0.000188723 -0.000247082 49.758 4.38056e-005 -6.03739e-005 45.1944 -3.05197e-005 -0.000137329 179.999 -105.983 -79.9218 -76.0642 -0.000209192 1.27089e-005 65.9844 -0.000310743 0.000344432 58.5702 3.05169e-005 -4.57763e-005 179.999 -16.1796 -83.9647 34.4438 -0.000104587 0.00028245 55.5556 -0.000227787 -6.49209e-005 57.7157 -6.10382e-005 -0.000198364 179.999 13.4556 -78.0188 70.4019 -0.000294494 0.000543614 51.2477 -6.91507e-005 0.000156763 49.3612 -6.10373e-005 -0.000137329 179.999 
0 0 0 -90 -7.01671e-015 -180 -139.173 74.463 26.9223 141.112 -0.15116 -96.1447 -2.67535 -2.26494 -51.0587 15.9563 22.3492 33.4328 -19.619 23.7051 60.7692 7.36125e-006 -1.5387e-005 -86.4974 169.916 -25.228 -116.337 -0.252261 -0.0723953 -4.96139 -9.43445 -2.07253 39.4332 -3.82784 3.6091 53.1997 -8.80748e-006 -4.25604e-005 -86.4975 0.000419986 7.53513e-005 123.277 -8.59573 7.89752 -12.0554 15.3651 5.40926 -14.0672 0.438005 -3.57437 -8.90391 3.75438 -6.50568 39.6365 8.42552 -12.6771 46.6474 108.095 21.4792 -32.7943 58.2252 12.0407 -7.10122 -10.3421 26.7262 24.7525 0.909909 -43.0631 -5.21074 -158.719 -1.25326 153.84 0.000456592 -0.00013984 17.8132 0.000151434 -4.74567e-005 11.5419 0.00324565 -0.00164351 0.00204825 29.9139 86.6193 -12.596 -0.000350102 -0.000244933 13.645 0.00111509 -0.000801684 9.68892 -0.000570974 -0.00043948 -2.31797 -1.69857 86.8859 32.0523 0.00010822 -0.000169115 14.4408 0.000899573 -0.000705027 15.2668 -0.000504967 -0.00036379 -2.32957 -58.7408 83.4841 92.4746 8.3958e-005 -0.000855084 15.6323 0.00151155 -0.000423664 16.4788 -0.000627181 -0.00065288 -2.31666 -62.9689 86.7394 88.6993 0.00111836 -0.00116948 18.6556 0.000117237 -0.000134079 18.211 -0.00109071 -2.40515e-005 -2.32069 -54.9432 -20.6802 -8.98021 -1.31215 46.381 27.7734 6.87134 17.9741 21.6675 -1.48074 34.8131 -9.02801 142.213 51.8016 169.894 -0.000186257 8.47787e-005 16.9256 8.80306e-005 6.68727e-005 18.8543 -0.000244138 -3.05175e-005 -179.995 -95.0295 -68.1709 -102.33 -0.000189099 -0.000269986 49.758 4.07183e-005 -6.34594e-005 45.1943 -3.05204e-005 -0.00012207 179.999 -105.983 -79.9218 -76.0642 -0.000210546 -1.15579e-005 65.9844 -0.000308414 0.000340886 58.5701 3.05165e-005 -4.57763e-005 179.999 -16.1797 -83.9647 34.4437 -0.000103526 0.000279153 55.5556 -0.000228437 -7.27746e-005 57.7157 -6.10397e-005 -0.000198364 179.999 13.4556 -78.0188 70.4019 -0.000293902 0.000538375 51.2477 -6.71404e-005 0.000151603 49.3612 -6.10384e-005 -0.000137329 179.999 
